<svg data-v-423bf9ae="" xmlns="http://www.w3.org/2000/svg" viewBox="0 0 160.7489973387851 60" class="font"><!----><!----><!----><g data-v-423bf9ae="" id="be4f7643-4fc7-4cd8-9c19-58ba05176a27" fill="black" transform="matrix(6.072875009773232,0,0,6.072875009773232,-8.68421507090838,-2.914980597359204)"><path d="M1.43 10.22L5.08 10.22C7.81 10.22 9.39 8.15 9.39 5.42C9.39 2.67 7.81 0.57 5.08 0.57L1.43 0.57ZM2.35 9.35L2.35 1.44L5.08 1.44C7.28 1.44 8.47 3.18 8.47 5.42C8.47 7.64 7.28 9.35 5.08 9.35ZM15.74 10.36C17.09 10.36 18.31 9.80 19.15 8.90L18.49 8.32C17.79 9.04 16.81 9.49 15.74 9.49C13.54 9.49 11.82 7.66 11.82 5.42C11.82 3.18 13.54 1.34 15.74 1.34C16.81 1.34 17.81 1.79 18.49 2.52L19.15 1.93C18.31 1.04 17.09 0.48 15.74 0.48C13.03 0.48 10.89 2.69 10.89 5.42C10.89 8.15 13.03 10.36 15.74 10.36ZM26.98 0.57L26.98 8.60L22.05 0.57L21.08 0.57L21.08 10.22L22.01 10.22L22.01 2.18L26.95 10.22L27.90 10.22L27.90 0.57Z"></path></g><!----><!----></svg>